<?xml version="1.0" encoding="utf-8"?>
<!-- Generator: Adobe Illustrator 26.0.1, SVG Export Plug-In . SVG Version: 6.00 Build 0)  -->
<svg version="1.1" id="Layer_1" xmlns="http://www.w3.org/2000/svg" xmlns:xlink="http://www.w3.org/1999/xlink" x="0px" y="0px"
	 viewBox="0 0 64 64" style="enable-background:new 0 0 64 64;" xml:space="preserve">
<style type="text/css">
	.st0{fill:#1C2028;}
	.st1{clip-path:url(#SVGID_00000085210590393856852110000000090340999204118195_);}
	.st2{fill:#FFFFFF;}
</style>
<path class="st0" d="M57.4,0H6.6C2.9,0,0,2.9,0,6.6v50.9C0,61.1,2.9,64,6.6,64h50.9c3.6,0,6.6-2.9,6.6-6.6V6.6C64,2.9,61.1,0,57.4,0
	z"/>
<g>
	<defs>
		<rect id="SVGID_1_" x="3" y="27" width="58" height="11"/>
	</defs>
	<clipPath id="SVGID_00000156554246915238033050000017485181490676041104_">
		<use xlink:href="#SVGID_1_"  style="overflow:visible;"/>
	</clipPath>
	<g style="clip-path:url(#SVGID_00000156554246915238033050000017485181490676041104_);">
		<path class="st2" d="M23.5,34.5c-1.4,0.1-3-0.8-3.7-2c0.7-1.2,2.4-2.1,3.7-2V34.5z M54.3,27c-3,0-5.4,1.4-6.7,3.5V27H44
			c-2.9,0-5.4,1.4-6.7,3.5V27h-3.6c-2.8,0-5.4,1.4-6.7,3.5V27h-3.6c-3,0-5.4,1.4-6.7,3.5V27h-3.6c-3.3,0-6,2.1-6.8,5
			C6,33.4,4.5,34.5,3,34.5V38c3,0.1,6-2.1,6.8-5c0.4-1.4,1.9-2.5,3.4-2.5V38h3.6v-3.5c1.3,2.1,4.3,3.6,6.7,3.5h3.6
			c0.4-3.4,2.9-7.3,6.7-7.5V38h3.6c0.4-3.4,2.9-7.3,6.7-7.5V38h3.6c0.4-3.4,2.9-7.3,6.7-7.5V38h3.6v-7.5H61V27H54.3z"/>
	</g>
</g>
</svg>
