<?xml version="1.0" encoding="utf-8"?>
<!-- Generator: Adobe Illustrator 26.0.1, SVG Export Plug-In . SVG Version: 6.00 Build 0)  -->
<svg version="1.1" xmlns="http://www.w3.org/2000/svg" xmlns:xlink="http://www.w3.org/1999/xlink" x="0px" y="0px"
	 viewBox="0 0 1024 512" style="enable-background:new 0 0 1024 512;" xml:space="preserve">
<style type="text/css">
	.st0{fill:#1C2028;}
	.st1{fill:#EDEFF3;}
	.st2{font-family:'Inter-Medium';}
	.st3{font-size:34px;}
</style>
<g id="Layer_2">
	<rect class="st0" width="1024" height="512"/>
</g>
<g id="Layer_1">
	<text transform="matrix(1 0 0 1 392.1937 322.1218)" class="st1 st2 st3">a une collective</text>
	<path class="st1" d="M443.65,227.2c-11.03,0.58-24.52-6.66-30.13-16.17c5.61-9.51,19.1-16.75,30.13-16.17V227.2z M691.58,166.11
		c-23.81-0.06-43.81,11.83-53.9,28.75v-28.75h-28.75c-23.2-0.06-43.81,11.83-53.9,28.75v-28.75H526.3
		c-22.5-0.06-43.81,11.83-53.9,28.75v-28.75h-28.75c-24.13-0.06-43.81,11.83-53.9,28.75v-28.75h-28.75
		c-26.21-0.06-48.67,17.31-54.99,40.72c-3.16,11.7-15.38,20.75-27.49,20.36v28.74c24.23,0.78,48.67-17.31,54.99-40.72
		c3.16-11.7,15.38-20.75,27.49-20.36v61.08h28.75V227.2c10.09,16.92,34.23,29.79,53.9,28.74h28.75
		c3.26-27.42,23.57-59.82,53.9-61.08v61.08h28.74c3.27-27.42,23.57-59.82,53.9-61.08v61.08h28.75c3.26-27.42,23.57-59.82,53.9-61.08
		v61.08h28.74v-61.08h25.15v-28.75H691.58z"/>
</g>
</svg>
