<svg id="f8b679de-fc39-40f5-87aa-907ee20cd9ea" data-name="Layer 1" xmlns="http://www.w3.org/2000/svg" viewBox="0 0 288 288"><defs><style>.f4ed4c28-cfb2-4fb0-9811-bce8ba6e2850{fill:#1C2028;}.e332e56f-3432-45c8-a6af-147dca5de29b{fill:#eceff4;}</style></defs><rect class="f4ed4c28-cfb2-4fb0-9811-bce8ba6e2850" width="288" height="288"/><path class="e332e56f-3432-45c8-a6af-147dca5de29b" d="M109.67,152.11c-5.54.29-12.31-3.35-15.13-8.12,2.82-4.78,9.59-8.42,15.13-8.13ZM234.2,121.43c-12,0-22,5.94-27.07,14.43V121.43H192.69c-11.66,0-22,5.94-27.07,14.43V121.43H151.18c-11.3,0-22,5.94-27.07,14.43V121.43H109.67c-12.12,0-22,5.94-27.07,14.43V121.43H68.16c-13.16,0-24.44,8.69-27.62,20.45a14.44,14.44,0,0,1-13.81,10.23v14.43c12.17.4,24.45-8.69,27.62-20.45a14.46,14.46,0,0,1,13.81-10.23v30.68H82.6V152.11c5.07,8.49,17.19,15,27.07,14.43h14.44c1.64-13.77,11.84-30,27.07-30.68v30.68h14.44c1.64-13.77,11.84-30,27.07-30.68v30.68h14.44c1.64-13.77,11.84-30,27.07-30.68v30.68h14.44V135.86h12.63V121.43Z" transform="translate(0 0)"/></svg>