
<svg xmlns="http://www.w3.org/2000/svg" viewBox="8.927 91.981 466.95 89.888">
    <path
      fill="white"
      d="M -12.076 1.813 C -27.477 0.999 -46.32 11.108 -54.154 24.394 C -46.32 37.678 -27.477 47.791 -12.076 46.973 Z M 334.157 87.117 C 300.911 87.2 272.975 70.597 258.89 46.973 L 258.89 87.117 L 218.745 87.117 C 186.341 87.2 157.565 70.597 143.477 46.973 L 143.477 87.117 L 103.335 87.117 C 71.911 87.2 42.152 70.597 28.067 46.973 L 28.067 87.117 L -12.076 87.117 C -45.768 87.2 -73.258 70.597 -87.344 46.973 L -87.344 87.117 L -127.487 87.117 C -164.089 87.2 -195.459 62.937 -204.282 30.247 C -208.693 13.903 -225.758 1.265 -242.679 1.813 L -242.679 -38.329 C -208.838 -39.425 -174.707 -14.15 -165.884 18.539 C -161.473 34.882 -144.407 47.52 -127.487 46.973 L -127.487 -38.329 L -87.344 -38.329 L -87.344 1.813 C -73.258 -21.812 -39.545 -39.791 -12.076 -38.329 L 28.067 -38.329 C 32.624 -0.031 60.988 45.211 103.335 46.973 L 103.335 -38.329 L 143.477 -38.329 C 148.037 -0.031 176.399 45.211 218.745 46.973 L 218.745 -38.329 L 258.89 -38.329 C 263.446 -0.031 291.811 45.211 334.157 46.973 L 334.157 -38.329 L 374.299 -38.329 L 374.299 46.973 L 409.421 46.973 L 409.421 87.117 Z"
      transform="matrix(0.716071, 0, 0, -0.716071, 182.702336, 154.363641)"
    />
  </svg>
